<svg width="109" height="51" viewBox="0 0 109 51" fill="none" xmlns="http://www.w3.org/2000/svg">
<path d="M47.9845 34.1987V34.1611C47.9845 34.0913 47.9845 34.0215 47.9845 33.9516C48.0801 30.1971 50.3378 26.9798 53.5463 25.5349V25.4973L53.5357 17.5156V17.478C46.0349 19.2344 40.4253 26.0505 40.4253 34.1611V34.1987C40.4253 42.3254 46.0615 49.1415 53.5835 50.8818L53.5729 42.8625C50.2846 41.3908 47.9845 38.0606 47.9845 34.1934V34.1987Z" fill="white"/>
<path d="M74.2848 33.9731C74.1998 25.9324 68.6008 19.2022 61.1372 17.478V17.5156L61.1478 25.4973V25.5349C64.3617 26.9798 66.63 30.1971 66.7309 33.957C66.7309 34.0268 66.7309 34.0967 66.7309 34.1665V34.2041C66.7309 38.0606 64.4414 41.3855 61.1691 42.8625L61.1797 50.8818C68.6858 49.1254 74.2901 42.3093 74.2901 34.1987V34.1611C74.2901 34.102 74.2901 34.0376 74.2901 33.9785L74.2848 33.9731Z" fill="white"/>
<path d="M26.5714 21.5011C23.5488 19.0035 19.894 17.7788 16.2711 17.7681H7.79823V25.0568H15.1821C15.5487 25.0139 15.9046 24.9924 16.2711 24.9978V25.0568H15.1821L15.6496 25.073C20.7493 25.073 24.898 29.2679 24.898 34.4297C24.898 39.2531 21.2752 43.2332 16.627 43.7273C16.4305 43.7434 16.2286 43.7649 16.0321 43.7703C16.0002 43.7703 15.9789 43.7756 15.9577 43.7756C15.6177 43.7971 15.2831 43.8132 14.9537 43.7703L14.9218 43.7488C11.9098 43.5178 9.30688 41.8259 7.79292 39.3659H0C2.07705 46.1014 8.30289 51 15.6496 51C16.0161 51 16.388 50.9892 16.7598 50.957C21.323 50.7959 25.7958 48.7279 28.914 44.8821C34.6458 37.7813 33.5887 27.2967 26.5714 21.5011ZM13.1157 18.0689V18.0527C13.1794 18.0474 13.2379 18.0366 13.3016 18.0313C13.2379 18.042 13.1794 18.0474 13.1157 18.0742V18.0689Z" fill="white"/>
<path d="M90.5561 25.5776V31.3141H88.596V27.0332H86.997L86.9651 28.4996C86.9439 29.6329 86.8908 30.2721 86.6252 30.6911C86.3861 31.0885 85.9186 31.4484 85.0793 31.4484C84.6437 31.4484 84.2825 31.384 84.0435 31.3141L84.0647 29.9069C84.1763 29.9391 84.325 29.9606 84.4472 29.9606C84.5906 29.9606 84.7765 29.9176 84.9253 29.7189C85.1112 29.4664 85.1643 29.0045 85.1962 27.8604L85.2493 25.583H90.5508L90.5561 25.5776Z" fill="white"/>
<path d="M93.4883 29.0206C93.5414 29.4825 93.8124 29.735 93.9452 29.8263C94.317 30.0895 94.8482 30.1217 95.1882 30.1217C95.5016 30.1217 96.1019 30.0787 96.8881 29.6813V31.0778C96.495 31.2443 95.8416 31.443 94.8535 31.443C93.7752 31.443 92.9784 31.1369 92.4259 30.6159C92.0009 30.2184 91.5122 29.5363 91.5122 28.4137C91.5122 27.898 91.6184 26.8829 92.4365 26.1685C92.8509 25.8032 93.5361 25.4434 94.5614 25.4434C95.0288 25.4434 96.001 25.5078 96.6862 26.3028C97.1218 26.8077 97.414 27.6241 97.414 28.6607V29.026H93.4936L93.4883 29.0206ZM95.6451 27.898C95.6663 27.3716 95.3954 27.0601 95.3635 27.0171C95.1563 26.7754 94.8748 26.7002 94.5773 26.7002C94.2798 26.7002 94.0089 26.7754 93.7805 27.0279C93.6052 27.2266 93.4671 27.5328 93.4671 27.898H95.6451Z" fill="white"/>
<path d="M99.4753 27.0279H97.7329V25.5723H103.178V27.0279H101.435V31.3088H99.4753V27.0279Z" fill="white"/>
<path d="M84.2666 35.6167H89.7541V37.1368H86.2905V38.6031H86.7899C87.7354 38.6031 88.8032 38.5709 89.5309 39.1188C89.8337 39.3497 90.3596 39.9137 90.3596 41.047C90.3596 41.6862 90.1631 42.3361 89.5097 42.7981C88.9307 43.2063 88.1073 43.3244 87.422 43.3244H84.2666V35.6221V35.6167ZM86.2905 41.8688H86.912C87.2042 41.8688 87.7089 41.8688 88.0223 41.6379C88.2826 41.4499 88.3357 41.1974 88.3357 40.9772C88.3357 40.5153 88.1073 40.2951 87.8895 40.1823C87.6823 40.0856 87.3795 40.048 86.843 40.048H86.2905V41.8635V41.8688Z" fill="white"/>
<path d="M93.4089 35.6167H95.8896L98.8166 43.3191H96.5961L96.0277 41.6808H93.1751L92.5749 43.3191H90.519L93.4035 35.6167H93.4089ZM94.6519 37.2012H94.6306L93.6532 40.2145H95.5603L94.6572 37.2012H94.6519Z" fill="white"/>
<path d="M99.4224 35.6167H102.61L104.219 40.7355H104.24L105.93 35.6167H109V43.3191H107.019L107.051 37.3946H107.029L105.09 43.3191H103.231L101.383 37.3946H101.361L101.404 43.3191H99.4224V35.6167Z" fill="white"/>
<path d="M28.861 2.70711V1.36967H27.7295V0H25.8756V1.36967H24.3404V0H22.4864V1.38041H20.9459V0H19.1026V1.38041H17.5621V0H15.7081V0.639179H15.7134V1.37504H14.1729V0H12.319V1.38041H10.7838V0H8.92983V1.38041H7.79834V2.71248H8.92983V6.85908H7.79834V8.19652H8.92983V9.56619H10.7838V8.19652H12.319V9.56619H14.1729V8.19115H15.7134V9.56619H17.5621V8.19652H19.1026V9.56619H20.9565V8.19652H22.4917V9.56619H24.3457V8.19115H25.8809V9.56619H27.7348V8.19115H28.8663V6.85371H27.7348V2.70711H28.8663H28.861ZM12.319 6.85371H10.7838V2.70711H12.319V6.85371ZM15.7134 6.85371H14.1729V2.70711H15.7134V6.85371ZM19.1026 6.85371H17.5621V2.70711H19.1026V6.85371ZM22.4917 6.85371H20.9512V2.70711H22.4917V6.85371ZM25.8809 6.84834H24.3457V2.70711H25.8809V6.84834Z" fill="white"/>
</svg>
